<?xml version="1.0" encoding="UTF-8" standalone="no"?>
<!-- Created with Inkscape (http://www.inkscape.org/) -->

<svg
   xmlns:dc="http://purl.org/dc/elements/1.1/"
   xmlns:cc="http://creativecommons.org/ns#"
   xmlns:rdf="http://www.w3.org/1999/02/22-rdf-syntax-ns#"
   xmlns:svg="http://www.w3.org/2000/svg"
   xmlns="http://www.w3.org/2000/svg"
   xmlns:sodipodi="http://sodipodi.sourceforge.net/DTD/sodipodi-0.dtd"
   xmlns:inkscape="http://www.inkscape.org/namespaces/inkscape"
   width="210mm"
   height="297mm"
   viewBox="0 0 210 297"
   version="1.1"
   id="svg8"
   sodipodi:docname="ice.svg"
   inkscape:version="0.92.3 (2405546, 2018-03-11)">
  <defs
     id="defs2" />
  <sodipodi:namedview
     id="base"
     pagecolor="#ffffff"
     bordercolor="#666666"
     borderopacity="1.0"
     inkscape:pageopacity="0.0"
     inkscape:pageshadow="2"
     inkscape:zoom="1.4449635"
     inkscape:cx="7.3677319"
     inkscape:cy="38.008818"
     inkscape:document-units="mm"
     inkscape:current-layer="layer1"
     showgrid="false"
     inkscape:window-width="1680"
     inkscape:window-height="991"
     inkscape:window-x="1680"
     inkscape:window-y="1050"
     inkscape:window-maximized="1" />
  <metadata
     id="metadata5">
    <rdf:RDF>
      <cc:Work
         rdf:about="">
        <dc:format>image/svg+xml</dc:format>
        <dc:type
           rdf:resource="http://purl.org/dc/dcmitype/StillImage" />
        <dc:title></dc:title>
      </cc:Work>
    </rdf:RDF>
  </metadata>
  <g
     inkscape:label="Layer 1"
     inkscape:groupmode="layer"
     id="layer1">
    <path
       style="fill:#000000;fill-opacity:1;stroke:none;stroke-width:0.08143151;stroke-linecap:round;stroke-linejoin:round;stroke-miterlimit:4;stroke-dasharray:none;stroke-opacity:1"
       d="m -4.1146505,274.06945 -1.231945,1.23192 4.53347234,4.53347 v 3.87665 H -3.4843845 v 1.74232 h 2.67126134 v 9.58347 l -6.77646494,-6.77643 1.8890487,-1.88903 -1.232101,-1.23209 -1.8888839,1.88903 -2.7412927,-2.74114 1.63e-4,-6.41153 h -1.742308 v 5.81921 l -5.81893,-1.3e-4 v 1.74213 h 6.411236 l 2.7412917,2.74129 -1.8888737,1.88887 1.231935,1.23193 1.8888752,-1.88886 6.776465,6.77644 h -9.5831782 v -2.67128 h -1.742309 v 2.67128 h -3.876689 l -4.533481,-4.53346 -1.231936,1.23194 4.114731,4.11455 -4.114731,4.11471 1.231936,1.23194 4.533481,-4.53361 h 3.876689 v 2.67141 h 1.742309 v -2.67141 h 9.5831782 l -6.7763005,6.77644 -1.8888737,-1.88888 -1.231947,1.23193 1.8888757,1.88889 -2.7412917,2.74127 h -6.411236 v 1.74215 l 5.818928,-1.5e-4 v 5.81923 h 1.742301 l -1.47e-4,-6.41153 2.7411297,-2.74114 1.8890384,1.88903 1.2319465,-1.23211 -1.8888839,-1.88903 6.77630014,-6.77627 v 9.58331 H -3.4843845 v 1.74232 h 2.67126134 v 3.87665 l -4.53347234,4.53349 1.231945,1.23192 4.114567944444,-4.11472 4.114722955556,4.11472 1.231935,-1.23192 -4.53362696,-4.53349 V 310.2885 H 3.4843844 v -1.74232 H 0.81294844 v -9.58331 l 6.77647396,6.77644 -1.888886,1.88886 1.232093,1.23211 1.888894,-1.88887 2.7411276,2.74113 v 6.41138 h 1.742311 l -1.55e-4,-5.81908 h 5.819084 v -1.74215 h -6.411383 l -2.7413196,-2.74111 1.8890296,-1.88905 -1.231927,-1.23193 -1.8890366,1.88888 -6.776457,-6.77644 h 9.5834966 v 2.67141 h 1.742155 v -2.67141 h 3.876698 l 4.533628,4.53361 1.23178,-1.23194 L 18.815988,297 l 4.114567,-4.11455 -1.23178,-1.23194 -4.533628,4.53346 h -3.876698 v -2.67128 h -1.742155 v 2.67128 H 1.9627974 l 6.77662,-6.77644 1.8888736,1.88886 1.231927,-1.23177 -1.8890296,-1.88903 2.7413196,-2.74129 h 6.411547 l -1.64e-4,-1.742 -5.818929,-1.3e-4 v -5.81893 l -1.742147,-1.5e-4 -1.64e-4,6.41153 -2.7411276,2.74114 -1.888894,-1.88888 -1.231936,1.23194 1.888875,1.88888 -6.77661996,6.77658 v -9.58347 H 3.4843844 v -1.74232 H 0.81294844 v -3.87665 l 4.53362696,-4.53347 -1.231935,-1.23192 -4.114722955556,4.1147 z"
       id="rect891"
       inkscape:connector-curvature="0" />
  </g>
</svg>
