999
Inkscape export via OpenSCAD DXF Export
  0
SECTION
  2
HEADER
  9
$ACADVER
  1
AC1014
  9
$HANDSEED
  5
FFFF
  9
$MEASUREMENT
 70
     1
  0
ENDSEC
  0
SECTION
  2
TABLES
  0
TABLE
  2
VPORT
  5
8
330
0
100
AcDbSymbolTable
 70
     4
  0
VPORT
  5
2E
330
8
100
AcDbSymbolTableRecord
100
AcDbViewportTableRecord
  2
*ACTIVE
 70
     0
 10
0.0
 20
0.0
 11
1.0
 21
1.0
 12
210.0
 22
148.5
 13
0.0
 23
0.0
 14
10.0
 24
10.0
 15
10.0
 25
10.0
 16
0.0
 26
0.0
 36
1.0
 17
0.0
 27
0.0
 37
0.0
 40
341.0
 41
1.24
 42
50.0
 43
0.0
 44
0.0
 50
0.0
 51
0.0
 71
     0
 72
   100
 73
     1
 74
     3
 75
     0
 76
     0
 77
     0
 78
     0
  0
ENDTAB
  0
TABLE
  2
LTYPE
  5
5
330
0
100
AcDbSymbolTable
 70
     1
  0
LTYPE
  5
14
330
5
100
AcDbSymbolTableRecord
100
AcDbLinetypeTableRecord
  2
BYBLOCK
 70
     0
  3

 72
    65
 73
     0
 40
0.0
  0
LTYPE
  5
15
330
5
100
AcDbSymbolTableRecord
100
AcDbLinetypeTableRecord
  2
BYLAYER
 70
     0
  3

 72
    65
 73
     0
 40
0.0
  0
LTYPE
  5
16
330
5
100
AcDbSymbolTableRecord
100
AcDbLinetypeTableRecord
  2
CONTINUOUS
 70
     0
  3
Solid line
 72
    65
 73
     0
 40
0.0
  0
ENDTAB
  0
TABLE
0
TABLE
2
LAYER
5
2
330
0
100
AcDbSymbolTable
70
1
0
LAYER
5
10
330
2
100
AcDbSymbolTableRecord
100
AcDbLayerTableRecord
2
Layer_1
70
0
62
7
6
CONTINUOUS
0
ENDTAB
0
ENDSEC
  0
ENDTAB
  0
TABLE
  2
STYLE
  5
3
330
0
100
AcDbSymbolTable
 70
     1
  0
STYLE
  5
11
330
3
100
AcDbSymbolTableRecord
100
AcDbTextStyleTableRecord
  2
STANDARD
 70
     0
 40
0.0
 41
1.0
 50
0.0
 71
     0
 42
2.5
  3
txt
  4

  0
ENDTAB
  0
TABLE
  2
VIEW
  5
6
330
0
100
AcDbSymbolTable
 70
     0
  0
ENDTAB
  0
TABLE
  2
UCS
  5
7
330
0
100
AcDbSymbolTable
 70
     0
  0
ENDTAB
  0
TABLE
  2
APPID
  5
9
330
0
100
AcDbSymbolTable
 70
     2
  0
APPID
  5
12
330
9
100
AcDbSymbolTableRecord
100
AcDbRegAppTableRecord
  2
ACAD
 70
     0
  0
ENDTAB
  0
TABLE
  2
DIMSTYLE
  5
A
330
0
100
AcDbSymbolTable
 70
     1
  0
DIMSTYLE
105
27
330
A
100
AcDbSymbolTableRecord
100
AcDbDimStyleTableRecord
  2
ISO-25
 70
     0
  3

  4

  5

  6

  7

 40
1.0
 41
2.5
 42
0.625
 43
3.75
 44
1.25
 45
0.0
 46
0.0
 47
0.0
 48
0.0
140
2.5
141
2.5
142
0.0
143
0.03937007874016
144
1.0
145
0.0
146
1.0
147
0.625
 71
     0
 72
     0
 73
     0
 74
     0
 75
     0
 76
     0
 77
     1
 78
     8
170
     0
171
     3
172
     1
173
     0
174
     0
175
     0
176
     0
177
     0
178
     0
270
     2
271
     2
272
     2
273
     2
274
     3
340
11
275
     0
280
     0
281
     0
282
     0
283
     0
284
     8
285
     0
286
     0
287
     3
288
     0
  0
ENDTAB
  0
TABLE
  2
BLOCK_RECORD
  5
1
330
0
100
AcDbSymbolTable
 70
     1
  0
BLOCK_RECORD
  5
1F
330
1
100
AcDbSymbolTableRecord
100
AcDbBlockTableRecord
  2
*MODEL_SPACE
  0
BLOCK_RECORD
  5
1B
330
1
100
AcDbSymbolTableRecord
100
AcDbBlockTableRecord
  2
*PAPER_SPACE
  0
ENDTAB
  0
ENDSEC
  0
SECTION
  2
BLOCKS
  0
BLOCK
  5
20
330
1F
100
AcDbEntity
  8
0
100
AcDbBlockBegin
  2
*MODEL_SPACE
 70
     0
 10
0.0
 20
0.0
 30
0.0
  3
*MODEL_SPACE
  1

  0
ENDBLK
  5
21
330
1F
100
AcDbEntity
  8
0
100
AcDbBlockEnd
  0
BLOCK
  5
1C
330
1B
100
AcDbEntity
 67
     1
  8
0
100
AcDbBlockBegin
  2
*PAPER_SPACE
  1

  0
ENDBLK
  5
1D
330
1B
100
AcDbEntity
 67
     1
  8
0
100
AcDbBlockEnd
  0
ENDSEC
  0
SECTION
  2
ENTITIES
0
DIMENSION
5
83
100
AcDbEntity
62
256
370
-1
6
ByLayer
1
total_width
3
Standard
70
0
71
5
72
1
41
1.0
100
AcDbAlignedDimension
13
-6.471512
23
0.000000
33
0.0
14
6.471512
24
0.000000
34
0.0
50
0.000000
100
AcDbRotatedDimension
0
DIMENSION
5
83
100
AcDbEntity
62
256
370
-1
6
ByLayer
1
total_minx
3
Standard
70
0
71
5
72
1
41
1.0
100
AcDbAlignedDimension
13
-6.471512
23
0.000000
33
0.0
14
0.000000
24
0.000000
34
0.0
50
0.000000
100
AcDbRotatedDimension
0
DIMENSION
5
83
100
AcDbEntity
62
256
370
-1
6
ByLayer
1
total_maxx
3
Standard
70
0
71
5
72
1
41
1.0
100
AcDbAlignedDimension
13
0.000000
23
0.000000
33
0.0
14
6.471512
24
0.000000
34
0.0
50
0.000000
100
AcDbRotatedDimension
0
DIMENSION
5
83
100
AcDbEntity
62
256
370
-1
6
ByLayer
1
total_height
3
Standard
70
0
71
5
72
1
41
1.0
100
AcDbAlignedDimension
13
0.000000
23
-6.471514
33
0.0
14
0.000000
24
6.471511
34
0.0
50
90.000000
100
AcDbRotatedDimension
0
DIMENSION
5
83
100
AcDbEntity
62
256
370
-1
6
ByLayer
1
total_miny
3
Standard
70
0
71
5
72
1
41
1.0
100
AcDbAlignedDimension
13
-6.471514
23
0.000000
33
0.0
14
0.000000
24
0.000000
34
0.0
50
0.000000
100
AcDbRotatedDimension
0
DIMENSION
5
83
100
AcDbEntity
62
256
370
-1
6
ByLayer
1
total_maxy
3
Standard
70
0
71
5
72
1
41
1.0
100
AcDbAlignedDimension
13
0.000000
23
0.000000
33
0.0
14
6.471511
24
0.000000
34
0.0
50
0.000000
100
AcDbRotatedDimension
0
DIMENSION
8
Layer_1
5
83
100
AcDbEntity
62
256
370
-1
6
ByLayer
1
Layer_1_width
3
Standard
70
0
71
5
72
1
41
1.0
100
AcDbAlignedDimension
13
-6.471512
23
0.000000
33
0.0
14
6.471512
24
0.000000
34
0.0
50
0.000000
100
AcDbRotatedDimension
0
DIMENSION
8
Layer_1
5
83
100
AcDbEntity
62
256
370
-1
6
ByLayer
1
Layer_1_minx
3
Standard
70
0
71
5
72
1
41
1.0
100
AcDbAlignedDimension
13
-6.471512
23
0.000000
33
0.0
14
0.000000
24
0.000000
34
0.0
50
0.000000
100
AcDbRotatedDimension
0
DIMENSION
8
Layer_1
5
83
100
AcDbEntity
62
256
370
-1
6
ByLayer
1
Layer_1_maxx
3
Standard
70
0
71
5
72
1
41
1.0
100
AcDbAlignedDimension
13
0.000000
23
0.000000
33
0.0
14
6.471512
24
0.000000
34
0.0
50
0.000000
100
AcDbRotatedDimension
0
DIMENSION
8
Layer_1
5
83
100
AcDbEntity
62
256
370
-1
6
ByLayer
1
Layer_1_height
3
Standard
70
0
71
5
72
1
41
1.0
100
AcDbAlignedDimension
13
0.000000
23
-6.471514
33
0.0
14
0.000000
24
6.471511
34
0.0
50
90.000000
100
AcDbRotatedDimension
0
DIMENSION
8
Layer_1
5
83
100
AcDbEntity
62
256
370
-1
6
ByLayer
1
Layer_1_miny
3
Standard
70
0
71
5
72
1
41
1.0
100
AcDbAlignedDimension
13
-6.471514
23
0.000000
33
0.0
14
0.000000
24
0.000000
34
0.0
50
0.000000
100
AcDbRotatedDimension
0
DIMENSION
8
Layer_1
5
83
100
AcDbEntity
62
256
370
-1
6
ByLayer
1
Layer_1_maxy
3
Standard
70
0
71
5
72
1
41
1.0
100
AcDbAlignedDimension
13
0.000000
23
0.000000
33
0.0
14
6.471511
24
0.000000
34
0.0
50
0.000000
100
AcDbRotatedDimension
62
0
0
LWPOLYLINE
100
AcDbPolyline
8
Layer_1
90
129
70
0
10
-1.161246
20
6.471511
30
0.0
10
-1.508928
20
6.123836
30
0.0
10
-0.229481
20
4.844390
30
0.0
10
-0.229481
20
3.750313
30
0.0
10
-0.983371
20
3.750313
30
0.0
10
-0.983371
20
3.258591
30
0.0
10
-0.229481
20
3.258591
30
0.0
10
-0.229481
20
0.553923
30
0.0
10
-2.141950
20
2.466382
30
0.0
10
-1.608819
20
2.999509
30
0.0
10
-1.956545
20
3.347232
30
0.0
10
-2.489630
20
2.814106
30
0.0
10
-3.263284
20
3.587716
30
0.0
10
-3.263238
20
5.397192
30
0.0
10
-3.754956
20
5.397192
30
0.0
10
-3.754956
20
3.754882
30
0.0
10
-5.397187
20
3.754919
30
0.0
10
-5.397187
20
3.263251
30
0.0
10
-3.587794
20
3.263251
30
0.0
10
-2.814141
20
2.489598
30
0.0
10
-3.347223
20
1.956517
30
0.0
10
-2.999543
20
1.608839
30
0.0
10
-2.466461
20
2.141917
30
0.0
10
-0.553992
20
0.229455
30
0.0
10
-3.258578
20
0.229455
30
0.0
10
-3.258578
20
0.983350
30
0.0
10
-3.750296
20
0.983350
30
0.0
10
-3.750296
20
0.229455
30
0.0
10
-4.844384
20
0.229455
30
0.0
10
-6.123833
20
1.508898
30
0.0
10
-6.471512
20
1.161217
30
0.0
10
-5.310244
20
0.000000
30
0.0
10
-6.471512
20
-1.161263
30
0.0
10
-6.123833
20
-1.508943
30
0.0
10
-4.844384
20
-0.229458
30
0.0
10
-3.750296
20
-0.229458
30
0.0
10
-3.750296
20
-0.983389
30
0.0
10
-3.258578
20
-0.983389
30
0.0
10
-3.258578
20
-0.229458
30
0.0
10
-0.553992
20
-0.229458
30
0.0
10
-2.466414
20
-2.141920
30
0.0
10
-2.999496
20
-1.608836
30
0.0
10
-3.347179
20
-1.956514
30
0.0
10
-2.814097
20
-2.489601
30
0.0
10
-3.587750
20
-3.263248
30
0.0
10
-5.397143
20
-3.263248
30
0.0
10
-5.397143
20
-3.754922
30
0.0
10
-3.754912
20
-3.754879
30
0.0
10
-3.754912
20
-5.397195
30
0.0
10
-3.263196
20
-5.397195
30
0.0
10
-3.263238
20
-3.587719
30
0.0
10
-2.489630
20
-2.814108
30
0.0
10
-1.956502
20
-3.347235
30
0.0
10
-1.608819
20
-2.999506
30
0.0
10
-2.141904
20
-2.466380
30
0.0
10
-0.229481
20
-0.553966
30
0.0
10
-0.229481
20
-3.258589
30
0.0
10
-0.983371
20
-3.258589
30
0.0
10
-0.983371
20
-3.750310
30
0.0
10
-0.229481
20
-3.750310
30
0.0
10
-0.229481
20
-4.844387
30
0.0
10
-1.508928
20
-6.123838
30
0.0
10
-1.161246
20
-6.471514
30
0.0
10
-0.000023
20
-5.310248
30
0.0
10
1.161243
20
-6.471514
30
0.0
10
1.508922
20
-6.123838
30
0.0
10
0.229432
20
-4.844387
30
0.0
10
0.229432
20
-3.750310
30
0.0
10
0.983371
20
-3.750310
30
0.0
10
0.983371
20
-3.258589
30
0.0
10
0.229432
20
-3.258589
30
0.0
10
0.229432
20
-0.553966
30
0.0
10
2.141904
20
-2.466427
30
0.0
10
1.608818
20
-2.999506
30
0.0
10
1.956542
20
-3.347235
30
0.0
10
2.489630
20
-2.814153
30
0.0
10
3.263237
20
-3.587761
30
0.0
10
3.263237
20
-5.397195
30
0.0
10
3.754956
20
-5.397195
30
0.0
10
3.754912
20
-3.754922
30
0.0
10
5.397187
20
-3.754922
30
0.0
10
5.397187
20
-3.263248
30
0.0
10
3.587752
20
-3.263248
30
0.0
10
2.814091
20
-2.489646
30
0.0
10
3.347217
20
-1.956514
30
0.0
10
2.999540
20
-1.608836
30
0.0
10
2.466412
20
-2.141920
30
0.0
10
0.553945
20
-0.229458
30
0.0
10
3.258621
20
-0.229458
30
0.0
10
3.258621
20
-0.983389
30
0.0
10
3.750296
20
-0.983389
30
0.0
10
3.750296
20
-0.229458
30
0.0
10
4.844386
20
-0.229458
30
0.0
10
6.123876
20
-1.508943
30
0.0
10
6.471512
20
-1.161263
30
0.0
10
5.310290
20
0.000000
30
0.0
10
6.471512
20
1.161217
30
0.0
10
6.123876
20
1.508898
30
0.0
10
4.844386
20
0.229455
30
0.0
10
3.750296
20
0.229455
30
0.0
10
3.750296
20
0.983350
30
0.0
10
3.258621
20
0.983350
30
0.0
10
3.258621
20
0.229455
30
0.0
10
0.553945
20
0.229455
30
0.0
10
2.466458
20
2.141917
30
0.0
10
2.999540
20
1.608839
30
0.0
10
3.347217
20
1.956472
30
0.0
10
2.814091
20
2.489598
30
0.0
10
3.587752
20
3.263251
30
0.0
10
5.397233
20
3.263251
30
0.0
10
5.397187
20
3.754882
30
0.0
10
3.754956
20
3.754919
30
0.0
10
3.754956
20
5.397150
30
0.0
10
3.263283
20
5.397192
30
0.0
10
3.263237
20
3.587716
30
0.0
10
2.489630
20
2.814106
30
0.0
10
1.956542
20
3.347189
30
0.0
10
1.608862
20
2.999509
30
0.0
10
2.141945
20
2.466425
30
0.0
10
0.229432
20
0.553923
30
0.0
10
0.229432
20
3.258591
30
0.0
10
0.983371
20
3.258591
30
0.0
10
0.983371
20
3.750313
30
0.0
10
0.229432
20
3.750313
30
0.0
10
0.229432
20
4.844390
30
0.0
10
1.508922
20
6.123836
30
0.0
10
1.161243
20
6.471511
30
0.0
10
-0.000023
20
5.310251
30
0.0
10
-1.161246
20
6.471511
30
0.0
  0
ENDSEC
  0
SECTION
  2
OBJECTS
  0
DICTIONARY
  5
C
330
0
100
AcDbDictionary
  3
ACAD_GROUP
350
D
  3
ACAD_MLINESTYLE
350
17
  0
DICTIONARY
  5
D
330
C
100
AcDbDictionary
  0
DICTIONARY
  5
1A
330
C
100
AcDbDictionary
  0
DICTIONARY
  5
17
330
C
100
AcDbDictionary
  3
STANDARD
350
18
  0
DICTIONARY
  5
19
330
C
100
AcDbDictionary
  0
ENDSEC
  0
EOF
