<?xml version="1.0" encoding="UTF-8" standalone="no"?>
<!-- Created with Inkscape (http://www.inkscape.org/) -->

<svg
   xmlns:dc="http://purl.org/dc/elements/1.1/"
   xmlns:cc="http://creativecommons.org/ns#"
   xmlns:rdf="http://www.w3.org/1999/02/22-rdf-syntax-ns#"
   xmlns:svg="http://www.w3.org/2000/svg"
   xmlns="http://www.w3.org/2000/svg"
   xmlns:sodipodi="http://sodipodi.sourceforge.net/DTD/sodipodi-0.dtd"
   xmlns:inkscape="http://www.inkscape.org/namespaces/inkscape"
   width="210mm"
   height="297mm"
   viewBox="0 0 210 297"
   version="1.1"
   id="svg8"
   sodipodi:docname="poison.svg"
   inkscape:version="0.92.4 (5da689c313, 2019-01-14)">
  <defs
     id="defs2" />
  <sodipodi:namedview
     id="base"
     pagecolor="#ffffff"
     bordercolor="#666666"
     borderopacity="1.0"
     inkscape:pageopacity="0.0"
     inkscape:pageshadow="2"
     inkscape:zoom="1.0217435"
     inkscape:cx="-30.547905"
     inkscape:cy="-63.372074"
     inkscape:document-units="mm"
     inkscape:current-layer="layer1"
     showgrid="false"
     inkscape:window-width="1680"
     inkscape:window-height="1021"
     inkscape:window-x="1680"
     inkscape:window-y="0"
     inkscape:window-maximized="1" />
  <metadata
     id="metadata5">
    <rdf:RDF>
      <cc:Work
         rdf:about="">
        <dc:format>image/svg+xml</dc:format>
        <dc:type
           rdf:resource="http://purl.org/dc/dcmitype/StillImage" />
        <dc:title></dc:title>
      </cc:Work>
    </rdf:RDF>
  </metadata>
  <g
     inkscape:label="Layer 1"
     inkscape:groupmode="layer"
     id="layer1">
    <path
       style="fill:#000000;fill-opacity:1;stroke:#000000;stroke-width:0.26458332;stroke-linecap:round;stroke-linejoin:round;stroke-miterlimit:4;stroke-dasharray:none;stroke-opacity:1"
       d="m -1.5100845,277.6176 c -3.1472345,0.44709 -6.0646895,2.28129 -7.7773011,5.24774 -1.9134484,3.32419 -1.9035524,7.41803 0.026351,10.73268 -0.017376,-6.9e-4 -0.033833,-0.001 -0.051153,-0.002 -5.9163444,-3.9e-4 -10.7127224,4.79566 -10.7125204,10.71201 -3.4e-5,1.42254 0.279963,2.77955 0.783413,4.02147 l 1.19631,-0.69093 c -0.235479,-0.76318 -0.362749,-1.57384 -0.362773,-2.41432 -9.2e-5,-4.5174 3.661943,-8.17919 8.179345,-8.17934 2.7039789,-2.1e-4 5.1006637,1.31239 6.5897829,3.33416 l 1.3999128,-0.80874 a 2.326886,2.326886 0 0 1 -0.081649,-0.60978 2.326886,2.326886 0 0 1 1.72547471,-2.24741 l 5.69e-6,-1.56579 c -1.3088414,-0.0387 -2.6270937,-0.39228 -3.8405917,-1.09296 -1.3448277,-0.77647 -2.3866967,-1.87744 -3.0819881,-3.14658 -1.3273109,-2.42297 -1.3945435,-5.45902 0.08785,-8.02638 1.3042802,-2.25896 3.5232799,-3.6583 5.9190238,-4.00441 z m 3.0204886,0.001 -5.8e-6,1.38545 c 0.765087,0.17861 1.51734,0.47053 2.2329371,0.88366 3.9123503,2.25859 5.2527787,7.26014 2.9941325,11.17245 -1.3447297,2.32936 -3.6615498,3.74667 -6.14226209,4.03593 l -10e-9,1.6154 a 2.326886,2.326886 0 0 1 1.737882,2.24844 2.326886,2.326886 0 0 1 -0.083716,0.60772 l 1.367356,0.78961 c 0.6875664,-1.1101 1.6507598,-2.07134 2.8608109,-2.76985 3.9122583,-2.25857 8.9143403,-0.91809 11.1729583,2.99413 1.259045,2.18097 1.433647,4.80447 0.511601,7.11688 l 1.088825,0.62942 c 1.214584,-3.0224 1.00295,-6.47138 -0.657839,-9.34775 -1.933159,-3.33633 -5.50903,-5.37602 -9.3648062,-5.34128 0.012759,-0.0201 0.024477,-0.0414 0.036774,-0.0617 2.9581752,-5.12345 1.2028862,-11.67474 -3.9206933,-14.6327 -1.2197623,-0.70427 -2.5205148,-1.13788 -3.8343908,-1.32602 z m -1.63969788,12.63076 a 8.4875057,8.4875057 0 0 0 -4.96404022,1.61333 6.7890691,6.7890691 0 0 0 1.1849478,0.92501 7.0496302,7.0496302 0 0 1 3.7790981,-1.10071 7.0496302,7.0496302 0 0 1 3.3780766,0.86972 7.0496302,7.0496302 0 0 1 0.1762254,0.10025 6.7890691,6.7890691 0 0 0 1.1518658,-0.97565 8.4875057,8.4875057 0 0 0 -4.70617348,-1.43195 z m 8.43515088,7.62589 a 6.7890691,6.7890691 0 0 0 -1.3931981,0.56379 7.0496302,7.0496302 0 0 1 -0.9363813,3.82302 7.0496302,7.0496302 0 0 1 -2.6174184,2.59312 6.7890691,6.7890691 0 0 0 0.2692425,1.48518 8.4875057,8.4875057 0 0 0 3.5930586,-3.35948 8.4875057,8.4875057 0 0 0 1.0846967,-5.10563 z m -16.8987132,0.31367 a 8.4875057,8.4875057 0 0 0 1.1131082,4.79196 8.4875057,8.4875057 0 0 0 3.8793493,3.49229 6.7890691,6.7890691 0 0 0 0.2082502,-1.4888 7.0496302,7.0496302 0 0 1 -2.8427168,-2.72231 7.0496302,7.0496302 0 0 1 -0.9368951,-3.56309 6.7890691,6.7890691 0 0 0 -1.4210958,-0.51005 z m 10.2479499,2.41019 a 2.326886,2.326886 0 0 1 -1.64847934,0.68833 2.326886,2.326886 0 0 1 -1.64847356,-0.6873 l -1.3627083,0.78652 c 0.6091104,1.14441 0.9560055,2.45045 0.9560169,3.83749 -4.03e-5,1.37043 -0.3449148,2.71855 -1.0020086,3.92121 -1.4341786,2.62507 -4.1860319,4.25766 -7.1773409,4.25762 -2.593989,6e-5 -4.904666,-1.20827 -6.403231,-3.0918 l -1.090372,0.62942 c 1.961831,2.48393 4.998341,4.07954 8.4093029,4.07934 3.8498756,-0.006 7.4002447,-2.0766 9.30021197,-5.425 0.01749348,0.0323 0.03429793,0.0654 0.0517919,0.0977 2.95809423,5.12347 9.50934603,6.87895 14.63270623,3.92069 1.18851,-0.68608 2.229415,-1.59336 3.071642,-2.66702 l -1.201477,-0.6935 c -0.548893,0.58765 -1.182177,1.09555 -1.885673,1.50172 -3.912143,2.25909 -8.9145425,0.91912 -11.173483,-2.9931 -1.3468656,-2.33284 -1.4132321,-5.05305 -0.4185787,-7.34838 z"
       id="path1462"
       inkscape:connector-curvature="0"
       inkscape:transform-center-x="-2.3801188e-05"
       inkscape:transform-center-y="-2.5860787" />
  </g>
</svg>
