999
Inkscape export via OpenSCAD DXF Export
  0
SECTION
  2
HEADER
  9
$ACADVER
  1
AC1014
  9
$HANDSEED
  5
FFFF
  9
$MEASUREMENT
 70
     1
  0
ENDSEC
  0
SECTION
  2
TABLES
  0
TABLE
  2
VPORT
  5
8
330
0
100
AcDbSymbolTable
 70
     4
  0
VPORT
  5
2E
330
8
100
AcDbSymbolTableRecord
100
AcDbViewportTableRecord
  2
*ACTIVE
 70
     0
 10
0.0
 20
0.0
 11
1.0
 21
1.0
 12
210.0
 22
148.5
 13
0.0
 23
0.0
 14
10.0
 24
10.0
 15
10.0
 25
10.0
 16
0.0
 26
0.0
 36
1.0
 17
0.0
 27
0.0
 37
0.0
 40
341.0
 41
1.24
 42
50.0
 43
0.0
 44
0.0
 50
0.0
 51
0.0
 71
     0
 72
   100
 73
     1
 74
     3
 75
     0
 76
     0
 77
     0
 78
     0
  0
ENDTAB
  0
TABLE
  2
LTYPE
  5
5
330
0
100
AcDbSymbolTable
 70
     1
  0
LTYPE
  5
14
330
5
100
AcDbSymbolTableRecord
100
AcDbLinetypeTableRecord
  2
BYBLOCK
 70
     0
  3

 72
    65
 73
     0
 40
0.0
  0
LTYPE
  5
15
330
5
100
AcDbSymbolTableRecord
100
AcDbLinetypeTableRecord
  2
BYLAYER
 70
     0
  3

 72
    65
 73
     0
 40
0.0
  0
LTYPE
  5
16
330
5
100
AcDbSymbolTableRecord
100
AcDbLinetypeTableRecord
  2
CONTINUOUS
 70
     0
  3
Solid line
 72
    65
 73
     0
 40
0.0
  0
ENDTAB
  0
TABLE
0
TABLE
2
LAYER
5
2
330
0
100
AcDbSymbolTable
70
1
0
LAYER
5
10
330
2
100
AcDbSymbolTableRecord
100
AcDbLayerTableRecord
2
Layer_1
70
0
62
7
6
CONTINUOUS
0
ENDTAB
0
ENDSEC
  0
ENDTAB
  0
TABLE
  2
STYLE
  5
3
330
0
100
AcDbSymbolTable
 70
     1
  0
STYLE
  5
11
330
3
100
AcDbSymbolTableRecord
100
AcDbTextStyleTableRecord
  2
STANDARD
 70
     0
 40
0.0
 41
1.0
 50
0.0
 71
     0
 42
2.5
  3
txt
  4

  0
ENDTAB
  0
TABLE
  2
VIEW
  5
6
330
0
100
AcDbSymbolTable
 70
     0
  0
ENDTAB
  0
TABLE
  2
UCS
  5
7
330
0
100
AcDbSymbolTable
 70
     0
  0
ENDTAB
  0
TABLE
  2
APPID
  5
9
330
0
100
AcDbSymbolTable
 70
     2
  0
APPID
  5
12
330
9
100
AcDbSymbolTableRecord
100
AcDbRegAppTableRecord
  2
ACAD
 70
     0
  0
ENDTAB
  0
TABLE
  2
DIMSTYLE
  5
A
330
0
100
AcDbSymbolTable
 70
     1
  0
DIMSTYLE
105
27
330
A
100
AcDbSymbolTableRecord
100
AcDbDimStyleTableRecord
  2
ISO-25
 70
     0
  3

  4

  5

  6

  7

 40
1.0
 41
2.5
 42
0.625
 43
3.75
 44
1.25
 45
0.0
 46
0.0
 47
0.0
 48
0.0
140
2.5
141
2.5
142
0.0
143
0.03937007874016
144
1.0
145
0.0
146
1.0
147
0.625
 71
     0
 72
     0
 73
     0
 74
     0
 75
     0
 76
     0
 77
     1
 78
     8
170
     0
171
     3
172
     1
173
     0
174
     0
175
     0
176
     0
177
     0
178
     0
270
     2
271
     2
272
     2
273
     2
274
     3
340
11
275
     0
280
     0
281
     0
282
     0
283
     0
284
     8
285
     0
286
     0
287
     3
288
     0
  0
ENDTAB
  0
TABLE
  2
BLOCK_RECORD
  5
1
330
0
100
AcDbSymbolTable
 70
     1
  0
BLOCK_RECORD
  5
1F
330
1
100
AcDbSymbolTableRecord
100
AcDbBlockTableRecord
  2
*MODEL_SPACE
  0
BLOCK_RECORD
  5
1B
330
1
100
AcDbSymbolTableRecord
100
AcDbBlockTableRecord
  2
*PAPER_SPACE
  0
ENDTAB
  0
ENDSEC
  0
SECTION
  2
BLOCKS
  0
BLOCK
  5
20
330
1F
100
AcDbEntity
  8
0
100
AcDbBlockBegin
  2
*MODEL_SPACE
 70
     0
 10
0.0
 20
0.0
 30
0.0
  3
*MODEL_SPACE
  1

  0
ENDBLK
  5
21
330
1F
100
AcDbEntity
  8
0
100
AcDbBlockEnd
  0
BLOCK
  5
1C
330
1B
100
AcDbEntity
 67
     1
  8
0
100
AcDbBlockBegin
  2
*PAPER_SPACE
  1

  0
ENDBLK
  5
1D
330
1B
100
AcDbEntity
 67
     1
  8
0
100
AcDbBlockEnd
  0
ENDSEC
  0
SECTION
  2
ENTITIES
0
DIMENSION
5
83
100
AcDbEntity
62
256
370
-1
6
ByLayer
1
total_width
3
Standard
70
0
71
5
72
1
41
1.0
100
AcDbAlignedDimension
13
-5.651418
23
0.000000
33
0.0
14
5.644520
24
0.000000
34
0.0
50
0.000000
100
AcDbRotatedDimension
0
DIMENSION
5
83
100
AcDbEntity
62
256
370
-1
6
ByLayer
1
total_minx
3
Standard
70
0
71
5
72
1
41
1.0
100
AcDbAlignedDimension
13
-5.651418
23
0.000000
33
0.0
14
0.000000
24
0.000000
34
0.0
50
0.000000
100
AcDbRotatedDimension
0
DIMENSION
5
83
100
AcDbEntity
62
256
370
-1
6
ByLayer
1
total_maxx
3
Standard
70
0
71
5
72
1
41
1.0
100
AcDbAlignedDimension
13
0.000000
23
0.000000
33
0.0
14
5.644520
24
0.000000
34
0.0
50
0.000000
100
AcDbRotatedDimension
0
DIMENSION
5
83
100
AcDbEntity
62
256
370
-1
6
ByLayer
1
total_height
3
Standard
70
0
71
5
72
1
41
1.0
100
AcDbAlignedDimension
13
0.000000
23
-5.085628
33
0.0
14
0.000000
24
5.470144
34
0.0
50
90.000000
100
AcDbRotatedDimension
0
DIMENSION
5
83
100
AcDbEntity
62
256
370
-1
6
ByLayer
1
total_miny
3
Standard
70
0
71
5
72
1
41
1.0
100
AcDbAlignedDimension
13
-5.085628
23
0.000000
33
0.0
14
0.000000
24
0.000000
34
0.0
50
0.000000
100
AcDbRotatedDimension
0
DIMENSION
5
83
100
AcDbEntity
62
256
370
-1
6
ByLayer
1
total_maxy
3
Standard
70
0
71
5
72
1
41
1.0
100
AcDbAlignedDimension
13
0.000000
23
0.000000
33
0.0
14
5.470144
24
0.000000
34
0.0
50
0.000000
100
AcDbRotatedDimension
0
DIMENSION
8
Layer_1
5
83
100
AcDbEntity
62
256
370
-1
6
ByLayer
1
Layer_1_width
3
Standard
70
0
71
5
72
1
41
1.0
100
AcDbAlignedDimension
13
-5.651418
23
0.000000
33
0.0
14
5.644520
24
0.000000
34
0.0
50
0.000000
100
AcDbRotatedDimension
0
DIMENSION
8
Layer_1
5
83
100
AcDbEntity
62
256
370
-1
6
ByLayer
1
Layer_1_minx
3
Standard
70
0
71
5
72
1
41
1.0
100
AcDbAlignedDimension
13
-5.651418
23
0.000000
33
0.0
14
0.000000
24
0.000000
34
0.0
50
0.000000
100
AcDbRotatedDimension
0
DIMENSION
8
Layer_1
5
83
100
AcDbEntity
62
256
370
-1
6
ByLayer
1
Layer_1_maxx
3
Standard
70
0
71
5
72
1
41
1.0
100
AcDbAlignedDimension
13
0.000000
23
0.000000
33
0.0
14
5.644520
24
0.000000
34
0.0
50
0.000000
100
AcDbRotatedDimension
0
DIMENSION
8
Layer_1
5
83
100
AcDbEntity
62
256
370
-1
6
ByLayer
1
Layer_1_height
3
Standard
70
0
71
5
72
1
41
1.0
100
AcDbAlignedDimension
13
0.000000
23
-5.085628
33
0.0
14
0.000000
24
5.470144
34
0.0
50
90.000000
100
AcDbRotatedDimension
0
DIMENSION
8
Layer_1
5
83
100
AcDbEntity
62
256
370
-1
6
ByLayer
1
Layer_1_miny
3
Standard
70
0
71
5
72
1
41
1.0
100
AcDbAlignedDimension
13
-5.085628
23
0.000000
33
0.0
14
0.000000
24
0.000000
34
0.0
50
0.000000
100
AcDbRotatedDimension
0
DIMENSION
8
Layer_1
5
83
100
AcDbEntity
62
256
370
-1
6
ByLayer
1
Layer_1_maxy
3
Standard
70
0
71
5
72
1
41
1.0
100
AcDbAlignedDimension
13
0.000000
23
0.000000
33
0.0
14
5.470144
24
0.000000
34
0.0
50
0.000000
100
AcDbRotatedDimension
62
0
0
LWPOLYLINE
100
AcDbPolyline
8
Layer_1
90
36
70
0
10
-0.426179
20
5.470144
30
0.0
10
-1.675474
20
4.996262
30
0.0
10
-2.199147
20
4.555975
30
0.0
10
-2.621107
20
3.989115
30
0.0
10
-2.924358
20
3.251598
30
0.0
10
-3.024143
20
2.473605
30
0.0
10
-2.920551
20
1.696117
30
0.0
10
-2.613670
20
0.960114
30
0.0
10
-2.628106
20
0.960679
30
0.0
10
-3.804921
20
0.723160
30
0.0
10
-4.765930
20
0.075283
30
0.0
10
-5.413854
20
-0.885688
30
0.0
10
-5.651418
20
-2.062488
30
0.0
10
-5.430321
20
-3.197437
30
0.0
10
-5.092696
20
-3.002441
30
0.0
10
-5.195078
20
-2.321066
30
0.0
10
-5.013687
20
-1.422533
30
0.0
10
-4.518983
20
-0.688795
30
0.0
10
-3.785229
20
-0.194094
30
0.0
10
-2.886685
20
-0.012675
30
0.0
10
-1.828221
20
-0.269169
30
0.0
10
-1.026902
20
-0.953649
30
0.0
10
-0.631816
20
-0.725404
30
0.0
10
-0.654859
20
-0.553311
30
0.0
10
-0.519045
20
-0.153512
30
0.0
10
-0.167892
20
0.080958
30
0.0
10
-0.167890
20
0.522859
30
0.0
10
-1.251790
20
0.831317
30
0.0
10
-1.755436
20
1.223193
30
0.0
10
-2.121596
20
1.719351
30
0.0
10
-2.406560
20
2.836682
30
0.0
10
-2.329852
20
3.421118
30
0.0
10
-2.096803
20
3.984574
30
0.0
10
-1.377076
20
4.752084
30
0.0
10
-0.426323
20
5.114708
30
0.0
10
-0.426179
20
5.470144
30
0.0
62
0
0
LWPOLYLINE
100
AcDbPolyline
8
Layer_1
90
37
70
0
10
0.426270
20
5.469862
30
0.0
10
0.426268
20
5.078857
30
0.0
10
1.056452
20
4.829469
30
0.0
10
1.743940
20
4.223151
30
0.0
10
2.132055
20
3.427930
30
0.0
10
2.193622
20
2.545200
30
0.0
10
1.901463
20
1.676355
30
0.0
10
1.154947
20
0.890930
30
0.0
10
0.167980
20
0.537326
30
0.0
10
0.167980
20
0.081424
30
0.0
10
0.521336
20
-0.152286
30
0.0
10
0.658449
20
-0.553136
30
0.0
10
0.634823
20
-0.724648
30
0.0
10
1.020721
20
-0.947493
30
0.0
10
1.828105
20
-0.165780
30
0.0
10
2.696966
20
0.126364
30
0.0
10
3.579744
20
0.064790
30
0.0
10
4.375017
20
-0.323322
30
0.0
10
4.981362
20
-1.010790
30
0.0
10
5.284387
20
-2.001150
30
0.0
10
5.125748
20
-3.019332
30
0.0
10
5.433038
20
-3.196968
30
0.0
10
5.614553
20
-2.539060
30
0.0
10
5.644520
20
-1.862442
30
0.0
10
5.522332
20
-1.193552
30
0.0
10
5.247381
20
-0.558825
30
0.0
10
4.757279
20
0.075321
30
0.0
10
4.129380
20
0.551660
30
0.0
10
3.399743
20
0.849614
30
0.0
10
2.604425
20
0.948603
30
0.0
10
2.614804
20
0.966016
30
0.0
10
2.997462
20
2.103894
30
0.0
10
2.916869
20
3.260033
30
0.0
10
2.408617
20
4.301582
30
0.0
10
1.508297
20
5.095689
30
0.0
10
0.426146
20
5.469921
30
0.0
10
0.426270
20
5.469862
30
0.0
62
0
0
LWPOLYLINE
100
AcDbPolyline
8
Layer_1
90
12
70
0
10
-0.036490
20
1.905181
30
0.0
10
-0.772841
20
1.787891
30
0.0
10
-1.437452
20
1.449863
30
0.0
10
-1.103033
20
1.188805
30
0.0
10
-0.591881
20
1.420075
30
0.0
10
-0.036488
20
1.499449
30
0.0
10
0.916880
20
1.253995
30
0.0
10
0.966615
20
1.225702
30
0.0
10
1.291697
20
1.501053
30
0.0
10
0.657524
20
1.801450
30
0.0
10
-0.036490
20
1.905181
30
0.0
10
-0.036490
20
1.905181
30
0.0
62
0
0
LWPOLYLINE
100
AcDbPolyline
8
Layer_1
90
11
70
0
10
2.344097
20
-0.247015
30
0.0
10
1.950906
20
-0.406129
30
0.0
10
1.895600
20
-0.964417
30
0.0
10
1.686638
20
-1.485070
30
0.0
10
0.947945
20
-2.216906
30
0.0
10
1.023931
20
-2.636057
30
0.0
10
1.601143
20
-2.237069
30
0.0
10
2.037972
20
-1.687937
30
0.0
10
2.304550
20
-0.991593
30
0.0
10
2.344097
20
-0.247015
30
0.0
10
2.344097
20
-0.247015
30
0.0
62
0
0
LWPOLYLINE
100
AcDbPolyline
8
Layer_1
90
11
70
0
10
-2.425095
20
-0.335540
30
0.0
10
-2.368157
20
-1.034998
30
0.0
10
-2.110951
20
-1.687937
30
0.0
10
-1.641179
20
-2.266992
30
0.0
10
-1.016112
20
-2.673539
30
0.0
10
-0.957340
20
-2.253367
30
0.0
10
-1.413186
20
-1.926346
30
0.0
10
-1.759618
20
-1.485070
30
0.0
10
-2.024030
20
-0.479487
30
0.0
10
-2.425095
20
-0.335540
30
0.0
10
-2.425095
20
-0.335540
30
0.0
62
0
0
LWPOLYLINE
100
AcDbPolyline
8
Layer_1
90
35
70
0
10
0.467104
20
-1.015749
30
0.0
10
0.001867
20
-1.210011
30
0.0
10
-0.463369
20
-1.016040
30
0.0
10
-0.847956
20
-1.238013
30
0.0
10
-0.578146
20
-2.321038
30
0.0
10
-0.860936
20
-3.427690
30
0.0
10
-1.229476
20
-3.927989
30
0.0
10
-1.708942
20
-4.306312
30
0.0
10
-2.270806
20
-4.545723
30
0.0
10
-2.886541
20
-4.629285
30
0.0
10
-3.906040
20
-4.392345
30
0.0
10
-4.693675
20
-3.756711
30
0.0
10
-5.001402
20
-3.934347
30
0.0
10
-3.968122
20
-4.772891
30
0.0
10
-3.327194
20
-5.004345
30
0.0
10
-2.628110
20
-5.085628
30
0.0
10
-1.835025
20
-4.978575
30
0.0
10
-1.109381
20
-4.673837
30
0.0
10
-0.486920
20
-4.192230
30
0.0
10
-0.003383
20
-3.554572
30
0.0
10
0.011234
20
-3.582145
30
0.0
10
0.805360
20
-4.482456
30
0.0
10
1.846914
20
-4.990714
30
0.0
10
3.003046
20
-5.071315
30
0.0
10
4.140908
20
-4.688651
30
0.0
10
5.007794
20
-3.935959
30
0.0
10
4.668711
20
-3.740237
30
0.0
10
4.136532
20
-4.164056
30
0.0
10
3.267674
20
-4.456308
30
0.0
10
2.384865
20
-4.394827
30
0.0
10
1.589538
20
-4.006781
30
0.0
10
0.983126
20
-3.319337
30
0.0
10
0.676250
20
-2.278429
30
0.0
10
0.864994
20
-1.245461
30
0.0
10
0.467104
20
-1.015749
30
0.0
  0
ENDSEC
  0
SECTION
  2
OBJECTS
  0
DICTIONARY
  5
C
330
0
100
AcDbDictionary
  3
ACAD_GROUP
350
D
  3
ACAD_MLINESTYLE
350
17
  0
DICTIONARY
  5
D
330
C
100
AcDbDictionary
  0
DICTIONARY
  5
1A
330
C
100
AcDbDictionary
  0
DICTIONARY
  5
17
330
C
100
AcDbDictionary
  3
STANDARD
350
18
  0
DICTIONARY
  5
19
330
C
100
AcDbDictionary
  0
ENDSEC
  0
EOF
