<?xml version="1.0" encoding="UTF-8" standalone="no"?>
<!-- Created with Inkscape (http://www.inkscape.org/) -->

<svg
   xmlns:dc="http://purl.org/dc/elements/1.1/"
   xmlns:cc="http://creativecommons.org/ns#"
   xmlns:rdf="http://www.w3.org/1999/02/22-rdf-syntax-ns#"
   xmlns:svg="http://www.w3.org/2000/svg"
   xmlns="http://www.w3.org/2000/svg"
   xmlns:sodipodi="http://sodipodi.sourceforge.net/DTD/sodipodi-0.dtd"
   xmlns:inkscape="http://www.inkscape.org/namespaces/inkscape"
   width="210mm"
   height="297mm"
   viewBox="0 0 210 297"
   version="1.1"
   id="svg8"
   sodipodi:docname="wind.svg"
   inkscape:version="0.92.3 (2405546, 2018-03-11)">
  <defs
     id="defs2" />
  <sodipodi:namedview
     id="base"
     pagecolor="#ffffff"
     bordercolor="#666666"
     borderopacity="1.0"
     inkscape:pageopacity="0.0"
     inkscape:pageshadow="2"
     inkscape:zoom="1.4"
     inkscape:cx="-18.654666"
     inkscape:cy="187.02226"
     inkscape:document-units="mm"
     inkscape:current-layer="layer1"
     showgrid="false"
     inkscape:window-width="1680"
     inkscape:window-height="991"
     inkscape:window-x="1680"
     inkscape:window-y="1050"
     inkscape:window-maximized="1" />
  <metadata
     id="metadata5">
    <rdf:RDF>
      <cc:Work
         rdf:about="">
        <dc:format>image/svg+xml</dc:format>
        <dc:type
           rdf:resource="http://purl.org/dc/dcmitype/StillImage" />
        <dc:title></dc:title>
      </cc:Work>
    </rdf:RDF>
  </metadata>
  <g
     inkscape:label="Layer 1"
     inkscape:groupmode="layer"
     id="layer1">
    <path
       style="fill:#000000;fill-opacity:1;stroke:none;stroke-width:0.63522726;stroke-linecap:square;stroke-linejoin:bevel;stroke-miterlimit:4;stroke-dasharray:none"
       d="m 13.496186,277.59729 c -11.8772436,0.0407 -29.948769,20.00191 -36.422506,3.38469 8.569163,33.15915 37.744372,-10.39783 45.576136,5.30753 -1.923558,-6.50589 -5.194549,-8.70573 -9.15363,-8.69222 z m -0.0039,11.56233 c -11.8772746,0.0407 -29.949107,20.00228 -36.422842,3.38506 8.569163,33.15917 37.74437,-10.39821 45.576134,5.30715 -1.923558,-6.50589 -5.194241,-8.70574 -9.153323,-8.69221 z m 0.284942,11.04891 c -11.8772386,0.0405 -29.949071,20.00192 -36.422807,3.38468 8.569163,33.15918 37.74437,-10.39784 45.576134,5.30755 -1.923556,-6.50589 -5.194241,-8.70578 -9.153322,-8.69223 z"
       id="shape0-3"
       inkscape:connector-curvature="0" />
  </g>
</svg>
